/* XPM */
static char * wastesedge_16x16_xpm[] = {
"16 16 192 2",
"  	c None",
". 	c #0F2C1A",
"+ 	c #083218",
"@ 	c #95A39C",
"# 	c #292B32",
"$ 	c #0E1A13",
"% 	c #13171A",
"& 	c #083A1C",
"* 	c #0E4C25",
"= 	c #2F6444",
"- 	c #AEC1B6",
"; 	c #365B45",
"> 	c #153722",
", 	c #10251A",
"' 	c #030B08",
") 	c #08361D",
"! 	c #09562C",
"~ 	c #296D46",
"{ 	c #437D5A",
"] 	c #779884",
"^ 	c #CEDAD2",
"/ 	c #6A8472",
"( 	c #3B5D47",
"_ 	c #183E28",
": 	c #132E20",
"< 	c #031D10",
"[ 	c #0B542C",
"} 	c #37895A",
"| 	c #81B597",
"1 	c #A7C6B3",
"2 	c #DEE8E1",
"3 	c #DAE1DC",
"4 	c #EEF2EF",
"5 	c #D9E0DB",
"6 	c #9DACA1",
"7 	c #83978A",
"8 	c #5F7B68",
"9 	c #465F4F",
"0 	c #03180A",
"a 	c #0F6833",
"b 	c #16813E",
"c 	c #127A3A",
"d 	c #2E7F4C",
"e 	c #3D7752",
"f 	c #577962",
"g 	c #8FA395",
"h 	c #C5CDC5",
"i 	c #6A7B6E",
"j 	c #496150",
"k 	c #2F4C38",
"l 	c #083B1B",
"m 	c #072C15",
"n 	c #09461F",
"o 	c #1D924C",
"p 	c #1F8C49",
"q 	c #147C43",
"r 	c #107036",
"s 	c #0A5C27",
"t 	c #0B3F1A",
"u 	c #405E49",
"v 	c #A2B0A7",
"w 	c #17321D",
"x 	c #05240E",
"y 	c #073316",
"z 	c #0A3A1C",
"A 	c #062B13",
"B 	c #062B15",
"C 	c #1B8849",
"D 	c #2EAA67",
"E 	c #279756",
"F 	c #168244",
"G 	c #107338",
"H 	c #0A5F29",
"I 	c #094820",
"J 	c #1C482A",
"K 	c #8FA296",
"L 	c #122F1A",
"M 	c #062912",
"N 	c #09391A",
"O 	c #083A1B",
"P 	c #052E14",
"Q 	c #146234",
"R 	c #3BB074",
"S 	c #45BD82",
"T 	c #37AC71",
"U 	c #1B9050",
"V 	c #0F7439",
"W 	c #0B632B",
"X 	c #095222",
"Y 	c #0C431F",
"Z 	c #698471",
"` 	c #0B2D16",
" .	c #073015",
"..	c #083919",
"+.	c #0A2B16",
"@.	c #0C1E14",
"#.	c #20834B",
"$.	c #49BD83",
"%.	c #4FBE89",
"&.	c #46B17C",
"*.	c #219158",
"=.	c #168348",
"-.	c #0F7539",
";.	c #0D5D2E",
">.	c #0A4821",
",.	c #4C735B",
"'.	c #093818",
").	c #093B1B",
"!.	c #0A361A",
"~.	c #0A3219",
"{.	c #2E9C62",
"].	c #53C58F",
"^.	c #5BC693",
"/.	c #55BE8A",
"(.	c #3AA36F",
"_.	c #208F54",
":.	c #167D43",
"<.	c #0E6834",
"[.	c #0B5428",
"}.	c #3B6F4C",
"|.	c #0A4A22",
"1.	c #0D4D23",
"2.	c #0A3F1C",
"3.	c #0F2019",
"4.	c #0D4323",
"5.	c #329F63",
"6.	c #55C48F",
"7.	c #63CE9B",
"8.	c #60C896",
"9.	c #4AAF7D",
"0.	c #36A46D",
"a.	c #1E8E50",
"b.	c #157C41",
"c.	c #116834",
"d.	c #116835",
"e.	c #10622F",
"f.	c #0F582A",
"g.	c #083117",
"h.	c #0E3D21",
"i.	c #289157",
"j.	c #54C490",
"k.	c #6ACFA1",
"l.	c #75CFA7",
"m.	c #58BD8E",
"n.	c #45AE7C",
"o.	c #34A267",
"p.	c #1D8F4D",
"q.	c #198043",
"r.	c #15733B",
"s.	c #136B34",
"t.	c #0C4E23",
"u.	c #06170E",
"v.	c #0B2F1A",
"w.	c #207F49",
"x.	c #47BD82",
"y.	c #6ED0A2",
"z.	c #70CFA4",
"A.	c #59C594",
"B.	c #51BF88",
"C.	c #3FB57A",
"D.	c #31A567",
"E.	c #1F8B4C",
"F.	c #157037",
"G.	c #0E4C23",
"H.	c #041E0F",
"I.	c #06140C",
"J.	c #18693B",
"K.	c #2E9A5F",
"L.	c #4DC087",
"M.	c #5CC895",
"N.	c #4FBF89",
"O.	c #44B87F",
"P.	c #32A96A",
"Q.	c #249656",
"R.	c #187940",
"S.	c #1C4B32",
"T.	c #0B2518",
"U.	c #144A2F",
"V.	c #1E6B42",
"W.	c #268650",
"X.	c #36A36A",
"Y.	c #3BA971",
"Z.	c #2FA065",
"`.	c #21884C",
" +	c #136935",
".+	c #0E4925",
"++	c #1D2929",
"@+	c #0D2F1B",
"#+	c #15522E",
"$+	c #176136",
"%+	c #155F35",
"&+	c #1D4433",
"                . + @ # $ $     ",
"            % & * = - ; > , $   ",
"        ' ) ! ~ { ] ^ / ( _ : $ ",
"      < [ } | 1 2 3 4 5 6 7 8 9 ",
"    0 a b c d e f g h i j k l m ",
"    n o p q r s t u v w x y z A ",
"  B C D E F G H I J K L M N O P ",
"  Q R S T U V W X Y Z `  ...O +.",
"@.#.$.%.&.*.=.-.;.>.,.N '.).!.  ",
"~.{.].^./.(._.:.<.[.}.|.1.2.3.  ",
"4.5.6.7.8.9.0.a.b.c.d.e.f.g.    ",
"h.i.j.k.l.m.n.o.p.q.r.s.t.u.    ",
"v.w.x.y.z.A.B.C.D.E.F.G.H.      ",
"I.J.K.L.M.N.O.P.Q.R.S.T.        ",
"  U.V.W.X.Y.Z.`. +.+            ",
"    ++@+#+$+%+&+                "};
